<svg xmlns="http://www.w3.org/2000/svg" xml:space="preserve" id="Layer_1" x="0" y="0" version="1.1" viewBox="0 0 512 512"><style>.st0{fill:#904a04}.st1{fill:#b26734}.st2{fill:#6d3c0f}.st3{fill:#bd6e35}.st4{fill:#a56032}.st5{fill:#3a3a3a}.st7{fill:#515151}.st8{fill:#303030}.st9{fill:#aaa}.st10{fill:#a4571f}.st11{fill:#824009}.st12{fill:#3f3f3f}.st15{fill:#fff}.st16{fill:#91562d}.st17{fill:#232323}.st18{fill:#161616}.st21{fill:#ffc33e}</style><g id="Layer_1_00000116227508903199095330000009523330652403328137_"><path d="M372.1 250.4s-.9 3.9-.9 4.6-22.7-2-22.7-2l.9-7.2z" class="st0"/><path d="M368.2 248.6s-57.6-17.2-82.5-12.6-8.8 18-8.8 18zM139.8 251s.9 3.9.9 4.6 22.7-2 22.7-2l-.9-7.2z" class="st0"/><path d="M143.7 249.3s57.6-17.2 82.5-12.6 8.8 18 8.8 18z" class="st0"/><ellipse cx="259.6" cy="291" class="st1" rx="105.4" ry="53.7"/><path d="m228.2 239.9-58.2 9.2-37.6 5.8-10.1 10.4v18.4l1.9 22.9 31.7 11.5 24.7 1.6c-7.2-73.7 47.6-79.8 47.6-79.8" class="st1"/><path d="M199.2 298.2s-11.8-18.3-42.5-8.5c-30.8 9.8 17 18.3 17 18.3zM111 447.1s20.3-22.7 66.6-26.3c18.1-1.4 13.9 41 13.9 41l30.8-27.5 60.3 4.9 24.4 18s15.6-38.7 45.4-37.9 47.8 24.4 47.8 24.4l-37.9-119.5h-219z" class="st2"/><path d="M311 352.9c-12.2 50.4-15.3 102.2-54.1 102.2-38.7 0-41.4-46.4-52-98.2-9.7-47.4 20.9-79 52-79 10 .1 19.8 2.8 28.4 7.8 19.6 11.5 33.5 34.9 25.7 67.2" class="st1"/><path d="M295.6 366.5c0 36.4-25.4 76.9-44.5 68.6-20-8.7-30.7-34.6-34.6-72.4-3.8-36 19.1-62.7 39.1-62.7 19.9 0 40 30.1 40 66.5" class="st3"/><path d="m283.8 239.2 58.2 9.2 37.5 5.7 10.1 10.4V283l-1.9 22.9-31.7 11.5-24.7 1.6c7.3-73.7-47.5-79.8-47.5-79.8" class="st1"/><path d="m217 241.9 22.8 49.1 22.9 24 18.6-26 21.5-47.1-31.2-5.3-30.4 2.3z" class="st4"/><path d="M307.8 317.8s6 30.8-5.8 34.7-22.9-25.5-22.9-25.5h-24.9l-.7-15.7 40.6-7.9z" class="st5"/><path d="M207.3 317.8s-6 30.8 5.8 34.7S236 327 236 327h24.9l.7-15.7-40.6-7.9z" class="st5"/><path d="m219 323.7 5.9-3.9 2.6-3.3h60.2l2 3.3 5.2 2.6L291 304l-39.9-2.6-26.9 2.6z" style="fill:#444"/><path d="M307.5 307.7s3.3 14.1-6.5 17-13.1-17.4-13.1-17.4l7.2-2zm-100.3 0s-3.3 14.1 6.5 17 13.1-17.4 13.1-17.4l-7.2-2z" class="st7"/><path d="M270.1 295.5h26.8L308 308l-11.8.6-14.4-1.9-11.1 1.3zm-24.9 0h-26.8L207.3 308l11.8.6 14.4-1.9 11.1 1.3z" class="st8"/><path d="M270.7 308h-26.8l-5.9-12.5h39.9z" class="st7"/><circle cx="270" cy="300.1" r="2" class="st9"/><path d="M254.8 304h5.7c.2 0 .4.2.4.4v.4c0 .2-.2.4-.4.4h-5.7c-.2 0-.4-.2-.4-.4v-.4c-.1-.2.1-.4.4-.4" class="st9"/><path d="M215.3 322c2-3.7 3.3-7.8 3.9-12 .1-.4-.6-.4-.7 0-.5 4.1-1.8 8.1-3.8 11.7-.1.3.4.7.6.3m84.3-.3c-2-3.6-3.3-7.6-3.8-11.7-.1-.4-.7-.4-.7 0 .5 4.2 1.9 8.3 3.9 12 .3.4.8 0 .6-.3" class="st5"/><path d="M234 301.5c-57.3 55.6-69.5 164.7-69.5 164.7s-11-49.4-22.1-51.2c-14.7-2.5-31.1 30.2-31.1 30.2s14.9-60.8 9.5-82.2c-5-20.2-32.3-50.9-15.9-88.5 0 0 14.5-23.8 51.3-27.3 0 0-113 34.4 74.8 52.7h6.3z" class="st10"/><path d="M218.8 308.5c-45.6 44.3-54.6 135.2-54.6 135.2s-10.4-39.3-19.1-40.8c-11.7-2-25.6 23.7-25.6 23.7s15.7-49.1 8.4-65.1c-21.3-46.5-22.6-59.1-20.6-71.4 0 0 0-22.3 21.5-32 0 0-61.8 33.3 87.7 47.8h4.9z" class="st0"/><path d="M316.7 297.5s11.8-18.3 42.5-8.5-17 18.3-17 18.3z" class="st2"/><path d="M277.9 300.8c57.3 55.6 69.5 164.7 69.5 164.7s11-49.4 22.1-51.2c14.7-2.5 31.2 30.2 31.2 30.2s-14.9-60.8-9.5-82.2c5-20.2 32.3-50.9 15.9-88.5 0 0-14.5-23.8-51.3-27.3 0 0 113 34.4-74.8 52.7h-6.3z" class="st10"/><path d="M293.2 307.8c45.6 44.3 54.6 135.2 54.6 135.2s10.4-39.3 19.1-40.8c11.7-2 25.6 23.7 25.6 23.7s-15.7-49.1-8.4-65.1c21.3-46.5 22.6-59.1 20.6-71.4 0 0 0-22.3-21.5-32 0 0 61.8 33.3-87.7 47.8h-4.9z" class="st0"/><path d="M183.9 246.6s9.5 18.2 46.3 18.2c1.7 0-3.8-2.8-3.8-2.8s-23.8 1.4-38.7-15.7c-1.6-1.9-3.8.3-3.8.3" class="st4"/><path d="M138.7 290.1v16.8l8.2-14.3zm-5.1-3.6v12.2l5.9-10.4zm239.6 2.9v16.9l-8.1-14.4zm5.1-3.5V298l-5.9-10.4z" class="st10"/><path d="m218.5 235.9-1.6 5.8 13.9.2.6-5.3zm84.7-.4-.5 6.5-11.9-2.3.8-5z" class="st11"/><path d="M238.5 458.7c-5.5 16.1-9.4 27.4-18.1 27.4s-17.8-15.9-17.8-32.9 7.9-38.9 16.7-38.9c8.7 0 25.3 26.4 19.2 44.4" class="st1"/><path d="m229.7 493-18.2-1.7 4.7-13.7 11.9-.4z" class="st1"/><path d="m212 489.8 17.6 2.3 8 19.8c-19.5-21.4-39.1-3.1-39.1-3.1z" class="st10"/><path d="M213 498.9s-5.9 8.7-3.9 13.1l6.5-6.5 7.7-6.5z" class="st10"/><path d="M275.6 455.7c4.8 16.3 6.9 28.2 15.6 28.2S309 468 309 451s-7.9-38.9-16.7-38.9-22 25.6-16.7 43.6" class="st1"/><path d="m281.9 490.7 18.2-1.7-4.7-13.7-12-.5z" class="st1"/><path d="m299.6 487.5-17.6 2.3-8 19.8c19.5-21.4 39.1-3.1 39.1-3.1z" class="st10"/><path d="M297.1 496.9s5.9 8.7 3.9 13.1l-6.5-6.5-7.7-6.5z" class="st10"/><path d="M222.3 263.3H236c1.5 0 2.7 1.2 2.7 2.7v3.2c0 1.5-1.2 2.7-2.7 2.7h-13.6c-1.5 0-2.7-1.2-2.7-2.7V266c0-1.5 1.2-2.7 2.6-2.7" class="st12"/><path d="M319.7 106.8s0-4.5-9.3-5.9c-3.8-.6-25.6-.3-25.6-.3l-6.8-15s30.1.3 39.6 5c9.5 4.6 7.4 11.8 6.5 19.3m-140.9 5.8s-.6-4.5 8.4-7.1c3.7-1 25.3-3.6 25.3-3.6l8.8-16s-33.9 4.5-42.7 10.3-5.8 12.7-3.9 19.9" class="st8"/><path d="M215.8 224.3c-.6 1.7 1.9 4.4 2.8 5.5 7.2 9 12.8 19.2 19.2 28.8 2.8 4.2 20.3 30 25.7 24.3 9.2-9.7 15.9-21.8 22.5-33.3 6.9-12.2 13.1-24.9 16.9-38.3.2-.4.2-.9.2-1.4-.4-3.6-16.1-3.9-19.1-4.4l-9-1.4c-.8-.1-2.9-.9-3.7-.6l-42.1 15.7-8.4 3.1c-1.1.4-4.3.6-4.9 1.8 0 .1 0 .2-.1.2" class="st1"/><path d="m221.9 227.6 24.9 39.1 6.1 5.4 7.7 6.7 7.6-7.7 21.8-34.2 11.4-27.1-31.7-4.3z" class="st10"/><path d="m285.3 239.1-53-2.7 13.8 28.2 5.2 5.2 7.2 5.9 4.6-3.9 3.2-3.3 3.3-4.6" style="fill:#cb63d3"/><path d="m247.4 257.2 4.5 7.8 5.9 5.9 22.2-19.6-25.4-2.6z" style="fill:#b25f8c"/><path d="M263.9 0c-2 .3-4.2 2.7-5.2 3.9-14 17-22.5 37.8-29.8 58.6-4 11.3-7.7 22.7-12 33.9-4.2 10.9-10 21.2-13.8 32.2-4.2 12.5-5.8 25.8-5 38.9 1 18.9 3.7 42.4 17.4 56.8 21 22.1 36.1 37.8 36.1 37.8l8.9 7.1 9.1-8.2s24.4-21.7 27.1-31.3 2.8-8.9 5-14 5.9-5.4 8.7-19.5c6.7-34-5.3-68.6-17.1-100.1-6.7-17.9-13.8-35.7-18.3-54.2-2-8-3.4-16.1-5.1-24.2q-1.2-6-2.7-12c-.3-1.4-.5-4.8-2-5.5-.5-.2-.9-.2-1.3-.2" class="st3"/><path d="M265.6.5c1.5 2-.8 3.6-.6 6 .3 3 .6 5.9.9 8.8.7 6.1 1.6 12.1 2.7 18.2 2.1 11.9 4.8 23.6 8.2 35.2 9.3 32 23.4 63.2 24.2 96.5.9 33.9-12.5 67-31.1 95.4 19.9-17.1 34.5-36.2 40.8-66.1 3.5-16.6 1.8-34.4-1.8-51-1.8-8.1-5.8-15.4-7.9-23.3-2.3-8.7-5.2-17.2-8.2-25.7-6-16.9-12.7-33.7-17.7-50.9-3.3-11.5-4.4-23.5-7.3-35.1-.2-.8-1.1-9.8-4-8.3" class="st1"/><path d="M230.3 183.1c.3 4.9-3.1 9.2-7.6 9.5s-8.5-3.5-8.8-8.4c-.3-5 3.3-5.7 7.8-6s8.2 0 8.6 4.9m71.8-4.2c.3 5.2-3.4 9.6-8.4 10s-9.3-3.6-9.6-8.8 3.6-6.1 8.6-6.4 9 0 9.4 5.2" class="st15"/><ellipse cx="242.8" cy="220.9" class="st16" rx="2.2" ry="4.4" transform="rotate(-18.071 242.742 220.852)"/><ellipse cx="274" cy="220.8" class="st16" rx="4.4" ry="2.2" transform="rotate(-71.929 274 220.801)"/><circle cx="224.6" cy="187.6" r="3.3" class="st17"/><circle cx="291.3" cy="183.1" r="3.4" class="st17"/><path d="m308.8 142.2 8.6-.6c.9-.1 1.6.6 1.7 1.5l3.2 49c.1.9-.6 1.6-1.5 1.7l-8.6.6c-.9.1-1.6-.6-1.7-1.5l-3.2-49c0-.9.7-1.7 1.5-1.7" class="st12"/><path d="m321.099 143.98 3.892-.253 3.017 46.403-3.892.253zm5.501 2.92 3.9-.3c.7 0 1.3.5 1.4 1.2l2.5 38.5c0 .7-.5 1.3-1.2 1.4l-3.9.3c-.7 0-1.3-.5-1.4-1.2l-2.5-38.5c-.1-.7.4-1.3 1.2-1.4" class="st18"/><path d="m318.3 195.3-.3-9.2 2.3-4-2.3-36-3.9-4.3-.4-1.3 5.2-1 3.4 1.8 3.3 50.9-3.1 2.8zm4.5-56.7 1.9 5.1 3.1 47.7-2 3.4 5.8-1.7-3.4-52.2zm-3-31.8 4.5 1.8 2.3 28.9-3.9.7z" class="st8"/><path d="m322.8 138.6-.1-10.5 5.5 12.8zm-146.7 45.6 2.2-.1c.7 0 1.2.5 1.3 1.1l.5 7.4c0 .7-.5 1.2-1.1 1.3l-2.2.1c-.7 0-1.2-.5-1.3-1.1l-.5-7.4c-.1-.7.4-1.2 1.1-1.3" class="st8"/><path d="M174.7 181s-33.1 96.6 55.7 90.8l1.9-.1-.4-5.9s-72.4 15.8-54.5-71.9c2.9-14.1-.8-12.4-.8-12.4z" class="st8"/><path d="m202 201.5-8.6.6c-.9.1-1.6-.6-1.7-1.5l-3.2-49c-.1-.9.6-1.6 1.5-1.7l8.6-.6c.9-.1 1.6.6 1.7 1.5l3.2 49c0 .9-.6 1.7-1.5 1.7" class="st12"/><path d="m182.699 152.978 3.891-.253 3.017 46.403-3.891.253z" class="st18"/><path d="m184.3 197.5-3.9.3c-.7 0-1.3-.5-1.4-1.2l-2.5-38.5c0-.7.5-1.3 1.2-1.4l3.9-.3c.7 0 1.3.5 1.4 1.2l2.5 38.5c.1.7-.5 1.3-1.2 1.4" class="st18"/><path d="m196.1 203.3-.9-9.2-2.8-3.7-2.4-35.9 3.3-4.8.3-1.4-5.3-.3-3.2 2.2 3.4 50.9 3.4 2.4zm-11.9-55.7L183 153l3.1 47.6 2.5 3.1-5.9-.9-3.4-52.2zm-.9-32-4.1 3.4 1.2 28 4 .1z" class="st8"/><path d="m184.3 147.6-1.3-10.4-3.7 13.4z" class="st8"/><path d="M200.9 137.6c3.2-2.2 7.4-2.5 11.1-2.9 4.3-.5 8.7-.8 12.9.3 3.7 1 5.2-4.7 1.6-5.7-5-1.3-10.1-1.1-15.2-.5-4.5.6-9.4 1-13.3 3.6-3.2 2.2-.2 7.3 2.9 5.2m81.6-4.7c7-2.9 14.8-3.4 22.1-1.3 3.7 1 5.2-4.7 1.6-5.7-8.3-2.4-17.2-1.9-25.3 1.3-1.5.6-2.5 2-2.1 3.6.5 1.4 2.3 2.7 3.7 2.1" style="fill:#7c441e"/><g id="Glasses"><path d="M266.7 173.9c-.2-3-5.6-6.7-12.1-6.4S243 172 243.2 175s5.2-1.5 11.7-1.8 11.9 3.7 11.8.7" class="st17"/><ellipse cx="221.6" cy="170.4" class="st15" rx="23" ry="31.8" transform="matrix(.9987 -.05024 .05024 .9987 -8.283 11.35)"/><ellipse cx="287.7" cy="167.1" class="st15" rx="23" ry="31.8" transform="rotate(-2.88 287.728 167.09)scale(.99996)"/><path d="m242.9 170.6 23.6-1.2" style="fill:none"/><path d="M207.6 148c-3.6 5.1-5.7 7.9-8.1 8s-4.7-4.2-4.9-9.5c-.3-5.2 14.9-6 17.4-6.1 2.3-.1-3.6 6.4-4.4 7.6m90.7-4.6c4 4.8 6.5 7.3 8.9 7.2s4.2-4.7 4-9.9c-.3-5.2-15.5-4.5-17.9-4.3-2.5.1 4 5.9 5 7" class="st17"/></g><circle cx="222.5" cy="189" r="7.8" class="st17"/><circle cx="290" cy="185.6" r="8.5" class="st17"/><circle cx="224.2" cy="192.6" r="2.1" class="st15"/><circle cx="287.8" cy="189.8" r="2.3" class="st15"/><ellipse cx="197.4" cy="145.8" class="st21" rx="1.4" ry=".6" transform="rotate(-19.438 197.426 145.77)"/><ellipse cx="308.2" cy="140.1" class="st21" rx=".6" ry="1.4" transform="rotate(-64.437 308.242 140.137)"/><path d="M183.9 246.9s-2.3-5.1-2.5-6.8c-.1-.4 2.8-.5 2.8-.5l3.6 6.6z" class="st11"/></g></svg>